<svg xmlns="http://www.w3.org/2000/svg" viewBox="0 0 493.94 493.94"><defs><style>.cls-1{fill:none;stroke:#231f20;stroke-miterlimit:10;}.cls-2{fill:#010101;}</style></defs><g id="Layer_6_copy" data-name="Layer 6 copy"><path class="cls-2" d="M303.54,181.39C251.66,185.89,66.68,198.66,49.1,218c-1.66,1.81-.2,3.53,1.51,4.75L65.19,227l-12.62.29c-4.63,11-19.82,47.22-27.26,64.88H59.89c6.05,0,8.21-.46,14.68-6.84s37.58-43.19,48.75-45.2c31.24-5.58,105.67-4,105.67-4s13.79,5.14,24.17,9.28l-8.41-6.13s33,25.1,44.85,26,49.69,3.24,53.78,3.64c12,1.16,13.2-11.39,13.2-11.39s17.77-3.2,25.06-16.41c15.5-1.81,58.79-5.46,65.62-9.11.35,0,.66-.07,1-.08.19,23.06,1.5,41,3.11,41s2.93-18.42,3.1-42a39.89,39.89,0,0,0,14.15-7.42,39.68,39.68,0,0,0-14.14-7.39c-.05-25.18-1.42-45.41-3.12-45.41s-3.05,19.72-3.13,44.42c-.34,0-.65-.08-1-.08l-.67,0c-1.75-4.77-7.2-18.12-15.73-25.9-4.13-1.66-13.2-3.3-24.78-4.74Zm-7.74,59.26c-.16,3.3-.7,4.83-4.8,4.38s-19.32-.39-25.25-1.3c-5-.77-6.22-2.36-7.62-4.83s-5.17-10.09-.61-10.55,31.68-.86,33.72-.8c2.19.07,4.24,1,4.24,4.08C295.47,234.93,295.87,239.26,295.8,240.65Zm48-13.84-2,20.56-34.18-1.57c-2.92,0-4.93-1.07-4.93-4.15v-9.82c0-2.15.94-4.68,4.34-4.83C312.36,226.75,343.79,226.81,343.79,226.81Zm35.7,11.93c-6.75,12.21-23.52,15.38-23.68,15.42l-.74.14,0,.05c-1-2.37-2.7-4.37-5-4.49l3-22.85c4.1,0,18-.46,25.75,9A3,3,0,0,1,379.49,238.73Z"/></g></svg>