<svg xmlns="http://www.w3.org/2000/svg" viewBox="0 0 493.94 493.94"><defs><style>.cls-1{fill:none;stroke:#231f20;stroke-miterlimit:10;}.cls-2{fill:#010101;}</style></defs><g id="Layer_2" data-name="Layer 2"><path class="cls-2" d="M303.08,395.72l6-92.12v-63.7H323a3.25,3.25,0,0,0,.68-.08c3.22-.44,17-2.29,24.16-2.94,7.49-.64,11.23-6.72,12.56-11l.95-.3.3,0c.06,19.42,1.13,34.91,2.46,34.91s2.41-15.9,2.45-35.69A31.19,31.19,0,0,0,377.64,219a31.35,31.35,0,0,0-11.12-5.83c-.13-18.49-1.16-33-2.43-33s-2.29,14.09-2.44,32.21c-.28,0-.52-.07-.8-.07h0l-.48-.15c-1.29-4.27-5-10.43-12.52-11.07-7.21-.6-20.9-2.5-24.16-2.94a4.43,4.43,0,0,0-.72-.08H309.08V134.34l-6-92.12A3.45,3.45,0,0,0,299.61,39H263.74a3.47,3.47,0,0,0-3.42,3L247.6,134.06c0,.16,0,.32,0,.48v63.94L163.49,208l-8.82-45.78a3.49,3.49,0,0,0-3.38-2.82H127.13a3.54,3.54,0,0,0-3.43,2.94l-7.36,48.27a2.1,2.1,0,0,0,0,.52,3.47,3.47,0,0,0,.89,2.29l4.91,5.6-4.91,5.52a3.43,3.43,0,0,0-.85,2.82l7.37,48.23a3.5,3.5,0,0,0,3.43,2.94h24.16a3.45,3.45,0,0,0,3.38-2.78L163.45,230l84.11,9.54V303.4c0,.16,0,.28,0,.44L260.32,396a3.47,3.47,0,0,0,3.42,3h35.91A3.44,3.44,0,0,0,303.08,395.72ZM238.66,226.86c-2.06-2.05-2.78-5.4-2.78-7.85s.72-5.8,2.78-7.81a5.82,5.82,0,0,1,4.43-1.69c4.19,0,4.47,2,4.47,2.29v14.45c0,.32-.28,2.26-4.47,2.29A6,6,0,0,1,238.66,226.86Zm72.2,3.42V207.76a1.73,1.73,0,0,1,1.73-1.74h2.91a1.73,1.73,0,0,1,1.1.39,15.62,15.62,0,0,1,0,25.22,1.74,1.74,0,0,1-1.1.39h-2.91A1.73,1.73,0,0,1,310.86,230.28Z"/></g></svg>