<svg xmlns="http://www.w3.org/2000/svg" viewBox="0 0 493.94 493.94"><defs><style>.cls-1{fill:none;stroke:#231f20;stroke-miterlimit:10;}.cls-2{fill:#010101;}</style></defs><g id="Layer_6_copy" data-name="Layer 6 copy"><path class="cls-2" d="M455.74,160.7l-108.81-7.09H271.7V137.2a3.84,3.84,0,0,0-.1-.81c-.52-3.8-2.71-20-3.47-28.53-.76-8.85-7.94-13.27-13-14.84l-.36-1.12c0-.12,0-.23,0-.35,22.93-.07,41.24-1.34,41.24-2.91s-18.78-2.85-42.16-2.9A36.84,36.84,0,0,0,247,72.62a37,37,0,0,0-6.89,13.14c-21.84.15-38.95,1.37-38.95,2.88s16.64,2.71,38,2.88c0,.33-.08.62-.08.94h0l-.18.56c-5,1.52-12.32,5.94-13.08,14.79-.71,8.51-2.95,24.68-3.47,28.53a5.23,5.23,0,0,0-.1.86v16.41H147L38.2,160.7a4.08,4.08,0,0,0-3.85,4.09v42.37a4.1,4.1,0,0,0,3.52,4l108.81,15c.19,0,.38,0,.57,0h75.52L234,325.57,179.92,336a4.12,4.12,0,0,0-3.33,4v28.53a4.18,4.18,0,0,0,3.47,4l57,8.7a2.48,2.48,0,0,0,.62.05,4.1,4.1,0,0,0,2.71-1.05l6.61-5.8,6.52,5.8a4.06,4.06,0,0,0,3.33,1l57-8.7a4.13,4.13,0,0,0,3.47-4V340a4.07,4.07,0,0,0-3.28-4l-54-10.36,11.27-99.35H346.7c.19,0,.33,0,.52,0l108.86-15a4.1,4.1,0,0,0,3.52-4V164.74A4.06,4.06,0,0,0,455.74,160.7ZM256.29,236.79c-2.43,2.43-6.37,3.28-9.27,3.28s-6.85-.86-9.23-3.28a6.87,6.87,0,0,1-2-5.23c0-4.95,2.33-5.28,2.71-5.28h17.07c.38,0,2.67.33,2.71,5.28A7.06,7.06,0,0,1,256.29,236.79Zm4-85.28H233.73a2,2,0,0,1-2-2V146a2,2,0,0,1,.46-1.29c4-4.88,9.24-7.56,14.9-7.56s10.94,2.68,14.89,7.56a2.05,2.05,0,0,1,.46,1.29v3.43h0A2,2,0,0,1,260.33,151.5Z"/></g></svg>