<svg xmlns="http://www.w3.org/2000/svg" viewBox="0 0 493.94 493.94"><defs><style>.cls-1{fill:none;stroke:#231f20;stroke-miterlimit:10;}.cls-2{fill:#010101;}</style></defs><g id="Layer_2" data-name="Layer 2"><path class="cls-2" d="M190.86,42.22l-6,92.12V198H171a3.25,3.25,0,0,0-.68.08c-3.22.44-17,2.29-24.16,2.94-7.49.64-11.23,6.72-12.56,11l-.95.3-.3,0c-.06-19.42-1.13-34.91-2.46-34.91s-2.41,15.9-2.45,35.69A31.19,31.19,0,0,0,116.3,219a31.35,31.35,0,0,0,11.12,5.83c.13,18.49,1.16,33,2.43,33s2.29-14.09,2.44-32.21c.28,0,.52.07.8.07h0l.48.15c1.29,4.27,5,10.43,12.52,11.07,7.21.6,20.9,2.5,24.16,2.94a4.43,4.43,0,0,0,.72.08h13.89V303.6l6,92.12a3.45,3.45,0,0,0,3.46,3.26H230.2a3.47,3.47,0,0,0,3.42-3l12.72-92.12c0-.16,0-.32,0-.48V239.46l84.06-9.5,8.82,45.78a3.49,3.49,0,0,0,3.38,2.82h24.16a3.54,3.54,0,0,0,3.43-2.94l7.36-48.27a2.1,2.1,0,0,0,0-.52,3.47,3.47,0,0,0-.89-2.29l-4.91-5.6,4.91-5.52a3.43,3.43,0,0,0,.85-2.82l-7.37-48.23a3.5,3.5,0,0,0-3.43-2.94H342.65a3.45,3.45,0,0,0-3.38,2.78l-8.77,45.74-84.11-9.54V134.54c0-.16,0-.28,0-.44L233.62,41.94a3.47,3.47,0,0,0-3.42-3H194.28A3.44,3.44,0,0,0,190.86,42.22Zm64.42,168.86c2.06,2.05,2.78,5.4,2.78,7.85s-.72,5.8-2.78,7.81a5.82,5.82,0,0,1-4.43,1.69c-4.19,0-4.47-2-4.47-2.29V211.68c0-.32.28-2.26,4.47-2.29A6,6,0,0,1,255.28,211.08Zm-72.2-3.42v22.53a1.73,1.73,0,0,1-1.73,1.74h-2.91a1.73,1.73,0,0,1-1.1-.39,15.62,15.62,0,0,1,0-25.22,1.74,1.74,0,0,1,1.1-.39h2.91A1.73,1.73,0,0,1,183.08,207.66Z"/></g></svg>