<svg xmlns="http://www.w3.org/2000/svg" viewBox="0 0 493.94 493.94"><defs><style>.cls-1{fill:none;stroke:#231f20;stroke-miterlimit:10;}.cls-2{fill:#010101;}</style></defs>
<g id="Layer_6" data-name="Layer 6"><path class="cls-2" d="M406.07,278.42c11.58-1.44,20.65-3.08,24.78-4.74,8.52-7.78,14-21.13,15.73-25.9l.67,0c.34,0,.65-.08,1-.08.08,24.7,1.44,44.42,3.13,44.42s3.07-20.23,3.12-45.41a39.68,39.68,0,0,0,14.14-7.39,39.89,39.89,0,0,0-14.15-7.42c-.16-23.53-1.48-42-3.1-42s-2.92,17.92-3.11,41c-.35,0-.66-.08-1-.08-6.84-3.65-50.12-7.3-65.62-9.11-7.29-13.21-25.06-16.41-25.06-16.41s-1.22-12.55-13.2-11.39c-4.09.4-41.94,2.74-53.78,3.64s-44.85,26-44.85,26l8.41-6.13c-10.38,4.14-24.17,9.28-24.17,9.28s-74.43,1.58-105.67-4c-11.17-2-42.3-38.81-48.75-45.2s-8.62-6.84-14.68-6.84H25.31c7.44,17.66,22.63,53.92,27.26,64.88l12.62.29L50.6,240.14c-1.7,1.22-3.16,2.94-1.51,4.75C66.68,264.22,251.66,277,303.54,281.48Zm-110.6-47.17c0,3.08-2,4-4.24,4.08-2,.06-29.16-.35-33.72-.8s-.82-8,.61-10.55,2.64-4.07,7.62-4.83c5.93-.91,21.16-.84,25.25-1.3s4.63,1.08,4.8,4.38C295.87,223.62,295.47,227.95,295.47,231.25Zm11.58,4.64c-3.4-.16-4.34-2.68-4.34-4.83v-9.82c0-3.08,2-4.15,4.93-4.15l34.18-1.57,2,20.56S312.36,236.13,307.05,235.89Zm71.76-9c-7.74,9.46-21.65,9-25.75,9l-3-22.85c2.25-.12,4-2.12,5-4.49l0,.05.74.14c.16,0,16.93,3.21,23.68,15.42A3,3,0,0,1,378.81,226.87Z"/></g></svg>